<svg id="visual" viewBox="0 0 900 200" width="900" height="200" xmlns="http://www.w3.org/2000/svg" xmlns:xlink="http://www.w3.org/1999/xlink" version="1.1"><path d="M0 49L37.5 48.7C75 48.3 150 47.7 225 47C300 46.3 375 45.7 450 44.3C525 43 600 41 675 40C750 39 825 39 862.5 39L900 39L900 0L862.5 0C825 0 750 0 675 0C600 0 525 0 450 0C375 0 300 0 225 0C150 0 75 0 37.5 0L0 0Z" fill="#000000"></path><path d="M0 57L37.5 57C75 57 150 57 225 56.3C300 55.7 375 54.3 450 53C525 51.7 600 50.3 675 49.7C750 49 825 49 862.5 49L900 49L900 37L862.5 37C825 37 750 37 675 38C600 39 525 41 450 42.3C375 43.7 300 44.3 225 45C150 45.7 75 46.3 37.5 46.7L0 47Z" fill="#000979"></path><path d="M0 71L37.5 71C75 71 150 71 225 70.3C300 69.7 375 68.3 450 67.3C525 66.3 600 65.7 675 65C750 64.3 825 63.7 862.5 63.3L900 63L900 47L862.5 47C825 47 750 47 675 47.7C600 48.3 525 49.7 450 51C375 52.3 300 53.7 225 54.3C150 55 75 55 37.5 55L0 55Z" fill="#252398"></path><path d="M0 79L37.5 79.3C75 79.7 150 80.3 225 79.7C300 79 375 77 450 76C525 75 600 75 675 74.3C750 73.7 825 72.3 862.5 71.7L900 71L900 61L862.5 61.3C825 61.7 750 62.3 675 63C600 63.7 525 64.3 450 65.3C375 66.3 300 67.7 225 68.3C150 69 75 69 37.5 69L0 69Z" fill="#4d3db8"></path><path d="M0 97L37.5 96.3C75 95.7 150 94.3 225 92.7C300 91 375 89 450 89C525 89 600 91 675 90.7C750 90.3 825 87.7 862.5 86.3L900 85L900 69L862.5 69.7C825 70.3 750 71.7 675 72.3C600 73 525 73 450 74C375 75 300 77 225 77.7C150 78.3 75 77.7 37.5 77.3L0 77Z" fill="#6f59d9"></path><path d="M0 117L37.5 116.3C75 115.7 150 114.3 225 112.3C300 110.3 375 107.7 450 107.7C525 107.7 600 110.3 675 110C750 109.7 825 106.3 862.5 104.7L900 103L900 83L862.5 84.3C825 85.7 750 88.3 675 88.7C600 89 525 87 450 87C375 87 300 89 225 90.7C150 92.3 75 93.7 37.5 94.3L0 95Z" fill="#7d65e6"></path><path d="M0 131L37.5 130C75 129 150 127 225 124.7C300 122.3 375 119.7 450 119.3C525 119 600 121 675 120.3C750 119.7 825 116.3 862.5 114.7L900 113L900 101L862.5 102.7C825 104.3 750 107.7 675 108C600 108.3 525 105.7 450 105.7C375 105.7 300 108.3 225 110.3C150 112.3 75 113.7 37.5 114.3L0 115Z" fill="#7d65e6"></path><path d="M0 139L37.5 138.3C75 137.7 150 136.3 225 134C300 131.7 375 128.3 450 127.7C525 127 600 129 675 128.3C750 127.7 825 124.3 862.5 122.7L900 121L900 111L862.5 112.7C825 114.3 750 117.7 675 118.3C600 119 525 117 450 117.3C375 117.7 300 120.3 225 122.7C150 125 75 127 37.5 128L0 129Z" fill="#6f59d9"></path><path d="M0 159L37.5 159C75 159 150 159 225 158C300 157 375 155 450 154.3C525 153.7 600 154.3 675 153C750 151.7 825 148.3 862.5 146.7L900 145L900 119L862.5 120.7C825 122.3 750 125.7 675 126.3C600 127 525 125 450 125.7C375 126.3 300 129.7 225 132C150 134.3 75 135.7 37.5 136.3L0 137Z" fill="#4d3db8"></path><path d="M0 165L37.5 165C75 165 150 165 225 164.3C300 163.7 375 162.3 450 161.7C525 161 600 161 675 159.7C750 158.3 825 155.7 862.5 154.3L900 153L900 143L862.5 144.7C825 146.3 750 149.7 675 151C600 152.3 525 151.7 450 152.3C375 153 300 155 225 156C150 157 75 157 37.5 157L0 157Z" fill="#252398"></path><path d="M0 171L37.5 171C75 171 150 171 225 170.3C300 169.7 375 168.3 450 167.7C525 167 600 167 675 166C750 165 825 163 862.5 162L900 161L900 151L862.5 152.3C825 153.7 750 156.3 675 157.7C600 159 525 159 450 159.7C375 160.3 300 161.7 225 162.3C150 163 75 163 37.5 163L0 163Z" fill="#000979"></path><path d="M0 201L37.5 201C75 201 150 201 225 201C300 201 375 201 450 201C525 201 600 201 675 201C750 201 825 201 862.5 201L900 201L900 159L862.5 160C825 161 750 163 675 164C600 165 525 165 450 165.7C375 166.3 300 167.7 225 168.3C150 169 75 169 37.5 169L0 169Z" fill="#000000"></path></svg>